<?xml version="1.0" standalone="no"?>
<!DOCTYPE svg PUBLIC "-//W3C//DTD SVG 20010904//EN"
 "http://www.w3.org/TR/2001/REC-SVG-20010904/DTD/svg10.dtd">
<svg version="1.0" xmlns="http://www.w3.org/2000/svg"
 width="652.000000pt" height="652.000000pt" viewBox="0 0 652.000000 652.000000"
 preserveAspectRatio="xMidYMid meet">
<metadata>
Created by potrace 1.16, written by Peter Selinger 2001-2019
</metadata>
<g transform="translate(0.000000,652.000000) scale(0.100000,-0.100000)"
fill="#000000" stroke="none">
<path d="M1260 5724 c-114 -30 -198 -79 -285 -167 -94 -94 -146 -186 -170
-302 -22 -104 -22 -3935 0 -4038 25 -118 77 -211 169 -302 93 -92 167 -136
282 -165 76 -20 118 -20 2043 -20 1715 0 1974 2 2030 15 82 20 202 82 268 140
64 56 142 172 174 256 l24 64 3 2004 c3 2222 7 2055 -64 2197 -68 136 -195
247 -344 302 l-75 27 -2000 2 c-1730 2 -2007 0 -2055 -13z m1700 -1269 l0
-125 -455 0 -455 0 0 125 0 125 455 0 455 0 0 -125z m-442 -757 l2 -188 220 0
220 0 0 -105 0 -105 -220 0 -220 0 0 -330 c0 -306 1 -334 19 -368 25 -49 67
-72 130 -72 100 0 150 40 178 142 10 35 21 57 28 54 6 -2 53 -17 104 -32 l93
-28 -6 -39 c-19 -115 -79 -218 -160 -274 -69 -47 -143 -67 -256 -67 -164 0
-280 49 -354 151 -62 85 -66 117 -66 511 l0 352 -90 0 -90 0 0 105 0 104 88 3
87 3 3 188 2 188 143 -3 142 -3 3 -187z m1262 -168 c95 -18 166 -57 231 -128
l59 -65 0 87 0 86 230 0 230 0 0 -110 0 -110 -90 0 -90 0 0 -521 c0 -585 -2
-601 -71 -745 -47 -99 -127 -184 -216 -232 -241 -128 -644 -85 -811 86 -46 47
-112 155 -112 183 0 11 164 109 211 127 4 2 18 -16 30 -39 29 -58 114 -140
174 -169 39 -18 72 -25 146 -28 89 -4 101 -2 158 23 149 67 212 209 210 475 0
83 0 84 -17 60 -79 -117 -187 -185 -318 -200 -290 -33 -521 131 -580 411 -20
91 -14 294 11 384 25 94 91 217 150 282 109 121 289 176 465 143z"/>
<path d="M3695 3301 c-94 -24 -168 -92 -207 -190 -20 -49 -23 -73 -23 -206 0
-136 2 -155 24 -202 28 -62 102 -135 155 -153 57 -18 191 -9 242 18 85 44 157
153 176 266 13 81 2 224 -23 291 -22 60 -96 136 -155 161 -43 18 -147 26 -189
15z"/>
</g>
</svg>
